<svg version="1.1" viewBox="0.0 0.0 960.0 540.0" fill="none" stroke="none" stroke-linecap="square" stroke-miterlimit="10" xmlns:xlink="http://www.w3.org/1999/xlink" xmlns="http://www.w3.org/2000/svg"><clipPath id="p.0"><path d="m0 0l960.0 0l0 540.0l-960.0 0l0 -540.0z" clip-rule="nonzero"/></clipPath><g clip-path="url(#p.0)"><path fill="#000000" fill-opacity="0.0" d="m0 0l960.0 0l0 540.0l-960.0 0z" fill-rule="evenodd"/><path fill="#9daf9b" fill-opacity="0.3855" d="m0.0022128609 188.59724l0 0c0 -72.99726 55.50964 -132.17323 123.98425 -132.17323l0 0c32.88266 0 64.41855 13.925354 87.670105 38.712646c23.251556 24.787285 36.314148 58.406067 36.314148 93.46059l0 0c0 72.99727 -55.509644 132.17323 -123.98425 132.17323l0 0c-68.47461 0 -123.98425 -59.175964 -123.98425 -132.17323z" fill-rule="evenodd"/><path fill="#ffffff" d="m28.66671 330.3275l0 0c0 -27.562073 21.532635 -49.905518 48.09449 -49.905518l0 0c12.755447 0 24.988472 5.2578735 34.007935 14.616974c9.01947 9.3591 14.0865555 22.052765 14.0865555 35.288544l0 0c0 27.562042 -21.532639 49.905518 -48.09449 49.905518l0 0c-26.561855 0 -48.09449 -22.343475 -48.09449 -49.905518z" fill-rule="evenodd"/><path fill="#ffffff" d="m137.46243 276.95108l0 0c0 -46.487595 35.351883 -84.17323 78.96063 -84.17323l0 0c20.941666 0 41.025604 8.868225 55.833588 24.653778c14.808014 15.785538 23.127045 37.195328 23.127045 59.519455l0 0c0 46.48758 -35.351868 84.17322 -78.96063 84.17322l0 0c-43.60875 0 -78.96063 -37.68564 -78.96063 -84.17322z" fill-rule="evenodd"/><path fill="#a59aaf" fill-opacity="0.4078" d="m152.45578 276.95038l0 0c0 -37.65973 28.63263 -68.18898 63.95276 -68.18898l0 0c16.961319 0 33.22795 7.1841736 45.221436 19.972092c11.993469 12.787918 18.731323 30.13205 18.731323 48.21689l0 0c0 37.65973 -28.63263 68.188965 -63.95276 68.188965l0 0c-35.32013 0 -63.95276 -30.529236 -63.95276 -68.188965z" fill-rule="evenodd"/><path fill="#6084a3" fill-opacity="0.4246" d="m39.642918 330.32748l0 0c0 -21.856567 16.625397 -39.5748 37.13386 -39.5748l0 0c9.848511 0 19.293655 4.169464 26.257599 11.591187c6.963951 7.421692 10.876259 17.487701 10.876259 27.983612l0 0c0 21.856537 -16.625397 39.5748 -37.133858 39.5748l0 0c-20.508465 0 -37.13386 -17.718262 -37.13386 -39.5748z" fill-rule="evenodd"/><path fill="#6084a3" fill-opacity="0.4246" d="m760.5025 171.8491l0 0c0 -58.72483 44.65869 -106.33071 99.74805 -106.33071l0 0c26.454773 0 51.82611 11.202667 70.53247 31.14354c18.70642 19.94088 29.215515 46.986504 29.215515 75.18717l0 0c0 58.724823 -44.65869 106.3307 -99.747986 106.3307l0 0c-55.089355 0 -99.74805 -47.60588 -99.74805 -106.3307z" fill-rule="evenodd"/><path fill="#ffffff" d="m659.9969 216.66838l0 0c0 -44.869873 34.118042 -81.244095 76.20477 -81.244095l0 0c20.210754 0 39.59369 8.559616 53.884827 23.795837c14.291199 15.236221 22.319885 35.900986 22.319885 57.448257l0 0c0 44.869858 -34.118042 81.244095 -76.20471 81.244095l0 0c-42.08673 0 -76.20477 -36.374237 -76.20477 -81.244095z" fill-rule="evenodd"/><path fill="#f1d483" fill-opacity="0.3911" d="m598.75964 397.35678l0 0c0 -47.618225 36.204956 -86.22046 80.86609 -86.22046l0 0c21.447083 0 42.015686 9.083923 57.18103 25.253387c15.165344 16.169464 23.68512 38.100006 23.68512 60.96707l0 0c0 47.618256 -36.205017 86.22049 -80.86615 86.22049l0 0c-44.661133 0 -80.86609 -38.602234 -80.86609 -86.22049z" fill-rule="evenodd"/><path fill="#9daf9b" fill-opacity="0.3855" d="m672.2463 216.67163l0 0c0 -37.65973 28.63263 -68.18898 63.95276 -68.18898l0 0c16.961365 0 33.227966 7.1841736 45.221436 19.972092c11.993469 12.787918 18.731323 30.13205 18.731323 48.21689l0 0c0 37.65973 -28.63263 68.188965 -63.95276 68.188965l0 0c-35.32013 0 -63.95276 -30.529236 -63.95276 -68.188965z" fill-rule="evenodd"/></g></svg>