<svg version="1.1" viewBox="0.0 0.0 960.0 540.0" fill="none" stroke="none" stroke-linecap="square" stroke-miterlimit="10" xmlns:xlink="http://www.w3.org/1999/xlink" xmlns="http://www.w3.org/2000/svg"><clipPath id="p.0"><path d="m0 0l960.0 0l0 540.0l-960.0 0l0 -540.0z" clip-rule="nonzero"/></clipPath><g clip-path="url(#p.0)"><path fill="#000000" fill-opacity="0.0" d="m0 0l960.0 0l0 540.0l-960.0 0z" fill-rule="evenodd"/><path fill="#efefef" d="m-82.00024 421.36655l1108.3918 -76.013855l-19.063293 -299.02048c-554.1959 38.006927 -561.45935 -75.925354 -1111.5283 26.815826z" fill-rule="evenodd"/><path fill="#efefef" d="m-30.000399 225.44862l1005.6063 0l0 314.5512l-1005.6063 0z" fill-rule="evenodd"/><path fill="#a59aaf" fill-opacity="0.4078" d="m734.06946 364.73584l0 0c5.0444946 -47.339935 46.13556 -81.479095 91.77954 -76.25195l0 0c21.918945 2.5101318 41.977905 13.948303 55.764038 31.798248c13.786133 17.849915 20.170227 40.649414 17.747742 63.382843l0 0c-5.0444946 47.339935 -46.13556 81.479095 -91.77954 76.25195l0 0c-45.64392 -5.227112 -78.556274 -47.841156 -73.51178 -95.18109z" fill-rule="evenodd"/><path fill="#9daf9b" fill-opacity="0.3855" d="m45.36767 376.82684l0 0c-17.542652 -64.299835 18.500187 -131.16806 80.50394 -149.35431l0 0c29.775246 -8.733353 61.677513 -4.842819 88.68865 10.815735c27.011154 15.658539 46.918564 41.80243 55.34285 72.68033l0 0c17.542633 64.299866 -18.500198 131.16806 -80.50394 149.35431l0 0c-62.003754 18.18628 -126.48885 -19.196198 -144.0315 -83.49606z" fill-rule="evenodd"/><path fill="#efefef" d="m61.480114 250.23785l0 0c-9.819363 -35.972427 10.331348 -73.39015 45.007877 -83.5748l0 0c16.652252 -4.8908386 34.495667 -2.7190704 49.604904 6.037552c15.109222 8.756607 26.246597 23.380783 30.96202 40.655365l0 0c9.819366 35.972427 -10.331345 73.39015 -45.007874 83.57478l0 0c-34.67652 10.184662 -70.74757 -10.720459 -80.566925 -46.6929z" fill-rule="evenodd"/><path fill="#6084a3" fill-opacity="0.4246" d="m72.98519 246.84882l0 0c-8.018997 -29.379807 8.444229 -59.937256 36.771652 -68.25197l0 0c13.60331 -3.992859 28.179207 -2.2175446 40.52117 4.935425c12.341965 7.152954 21.438995 19.097626 25.289856 33.206314l0 0c8.018997 29.379807 -8.444229 59.937256 -36.771652 68.25195l0 0c-28.327423 8.314728 -57.792023 -8.761902 -65.81103 -38.141724z" fill-rule="evenodd"/><path fill="#efefef" d="m712.0638 459.19223l0 0c-7.984253 -29.223267 8.387329 -59.62558 36.566895 -67.90552l0 0c13.532288 -3.9761353 28.033508 -2.2146606 40.313416 4.896942c12.279968 7.1116333 21.332764 18.990814 25.166931 33.024323l0 0c7.984192 29.223267 -8.38739 59.62558 -36.566956 67.90552l0 0c-28.179565 8.279907 -57.496094 -8.697998 -65.480286 -37.921265z" fill-rule="evenodd"/><path fill="#9daf9b" fill-opacity="0.3855" d="m721.5786 439.4597l0 0c2.5309448 -23.769989 23.161072 -40.910065 46.078735 -38.283447l0 0c11.005432 1.261322 21.07727 7.0055237 27.999878 15.968872c6.9226074 8.963348 10.128906 20.411652 8.913513 31.826385l0 0c-2.5309448 23.769989 -23.161133 40.910095 -46.078796 38.283478l0 0c-22.917603 -2.6266174 -39.444275 -24.0253 -36.91333 -47.795288z" fill-rule="evenodd"/></g></svg>