<svg version="1.1" viewBox="0.0 0.0 960.0 540.0" fill="none" stroke="none" stroke-linecap="square" stroke-miterlimit="10" xmlns:xlink="http://www.w3.org/1999/xlink" xmlns="http://www.w3.org/2000/svg"><clipPath id="p.0"><path d="m0 0l960.0 0l0 540.0l-960.0 0l0 -540.0z" clip-rule="nonzero"/></clipPath><g clip-path="url(#p.0)"><path fill="#000000" fill-opacity="0.0" d="m0 0l960.0 0l0 540.0l-960.0 0z" fill-rule="evenodd"/><path fill="#f1d483" fill-opacity="0.3911" d="m687.17993 346.79947l0 0c-18.673279 -66.00455 19.696228 -134.64952 85.700806 -153.32283l0 0c31.696472 -8.967239 65.65704 -4.97583 94.410645 11.096191c28.753601 16.072021 49.944946 42.908096 58.91217 74.6046l0 0c18.67334 66.00455 -19.696228 134.6495 -85.700745 153.32281l0 0c-66.00458 18.67334 -134.64954 -19.696228 -153.32288 -85.700775z" fill-rule="evenodd"/><path fill="#ffffff" d="m805.0706 198.80269l0 0c4.2530518 -38.47728 38.892822 -66.22153 77.37012 -61.96849l0 0c18.477417 2.0423737 35.38678 11.341232 47.008118 25.850937c11.621338 14.509705 17.002747 33.041687 14.960388 51.519135l0 0c-4.2530518 38.477295 -38.892822 66.22154 -77.37012 61.96849l0 0c-38.477234 -4.2530212 -66.2215 -38.892776 -61.968506 -77.37007z" fill-rule="evenodd"/><path fill="#6084a3" fill-opacity="0.4246" d="m9.715465 385.28088l0 0c5.3749924 -48.58368 49.117123 -83.61124 97.70079 -78.23624l0 0c23.330696 2.5811768 44.680473 14.324707 59.352608 32.647156c14.672134 18.322449 21.464767 41.72293 18.883606 65.05365l0 0c-5.3749847 48.58365 -49.11711 83.611206 -97.70078 78.236206l0 0c-48.58366 -5.375 -83.611206 -49.117126 -78.23622 -97.700775z" fill-rule="evenodd"/><path fill="#ffffff" d="m88.75453 471.87296l0 0c3.4006805 -30.823578 31.14492 -53.05423 61.968506 -49.653534l0 0c14.802002 1.6330566 28.349014 9.079315 37.66086 20.700653c9.311844 11.621338 13.625748 26.46582 11.992676 41.267822l0 0c-3.4006805 30.823578 -31.144928 53.05423 -61.968506 49.653534l0 0c-30.82357 -3.4006348 -53.054222 -31.144897 -49.653534 -61.968475z" fill-rule="evenodd"/><path fill="#a59aaf" fill-opacity="0.4078" d="m820.1571 221.95383l0 0c-8.5321045 -30.153885 8.995728 -61.515106 39.149597 -70.04724l0 0c14.480408 -4.09729 29.995361 -2.2744446 43.131775 5.0675354c13.136414 7.34198 22.818237 19.60167 26.915466 34.08206l0 0c8.532166 30.153885 -8.995728 61.515106 -39.149597 70.04724l0 0c-30.15387 8.532166 -61.515076 -8.995728 -70.04724 -39.149597z" fill-rule="evenodd"/><path fill="#f1d483" fill-opacity="0.3911" d="m100.39475 473.15234l0 0c2.6961975 -24.387512 24.65187 -41.9718 49.039375 -39.275604l0 0c11.711288 1.2947693 22.428574 7.1887817 29.794174 16.385437c7.3656006 9.196686 10.776169 20.942657 9.481415 32.65393l0 0c-2.6961975 24.387512 -24.65187 41.97177 -49.039368 39.275604l0 0c-24.387505 -2.696228 -41.971786 -24.651886 -39.275597 -49.039368z" fill-rule="evenodd"/></g></svg>